<?xml version="1.0" encoding="UTF-8"?>
<svg xmlns="http://www.w3.org/2000/svg" width="520" height="176" viewBox="0 0 520 176" role="img" aria-label="TrazoLoco: Draw-and-guess in Spanish with real-time rooms. Node + WebSockets on Render. ~250 players/mo · 29% arrive via AI assistants">
  <style>
    .glow{animation:breathe 6s ease-in-out infinite}
    .win-trazo .glow{animation-delay:-1.3s}.win-quovra .glow{animation-delay:-2.7s}
    .win-reachr .glow{animation-delay:-4.1s}.win-cobro .glow{animation-delay:-5.2s}
    .star{animation:twinkle 4s ease-in-out infinite}
    .star:nth-child(3n){animation-delay:-1.4s}.star:nth-child(3n+1){animation-delay:-2.6s}
    @keyframes breathe{0%,100%{opacity:var(--o,.55)}50%{opacity:calc(var(--o,.55) * .55)}}
    @keyframes twinkle{0%,100%{opacity:.9}50%{opacity:.25}}
    @media (prefers-reduced-motion:reduce){.glow,.star{animation:none}}
    </style>
  <defs>
    <linearGradient id="cltra-sky" x1="0" y1="0" x2="0" y2="1">
      <stop offset="0" stop-color="#6FA8DC"/><stop offset=".62" stop-color="#BDD6EA"/><stop offset="1" stop-color="#E6ECF0"/>
    </linearGradient>
    <linearGradient id="cltra-plaster" x1="0" y1="0" x2="1" y2="0">
      <stop offset="0" stop-color="#DCD2C4"/><stop offset="1" stop-color="#C6BAAA"/>
    </linearGradient>
    <filter id="cltra-blur" x="-40%" y="-40%" width="180%" height="180%"><feGaussianBlur stdDeviation="9"/></filter>
    <filter id="cltra-soft" x="-20%" y="-20%" width="140%" height="140%"><feGaussianBlur stdDeviation="3"/></filter>
  </defs>
  <rect x="1" y="1" width="518" height="174" rx="8" fill="url(#cltra-plaster)" stroke="#9E9081" stroke-width="2"/>
  <rect x="1" y="162" width="518" height="12" rx="6" fill="#B9B0A3"/>
  <rect x="1" y="162" width="518" height="2" fill="#8B8073"/>
  
  <g class="win win-trazo">
    <rect x="20" y="16" width="86" height="108" rx="6" fill="#ffe3ae" opacity="0.25" style="--o:0.25" filter="url(#cltra-blur)" class="glow"/>
    <rect x="30" y="26" width="66" height="88" fill="#f7f3e9" stroke="#15111F" stroke-width="3"/>
    <line x1="63.0" y1="26" x2="63.0" y2="114" stroke="#15111F" stroke-width="1.5" opacity=".35"/>
    <line x1="30" y1="62.96" x2="96" y2="62.96" stroke="#15111F" stroke-width="1.5" opacity=".35"/>
    <svg x="36.6" y="54.2" width="52.8" height="52.8" viewBox="0 0 80 60"><path d="M8 48 L8 16 Q24 10 40 16 L40 48 Q24 42 8 48 Z" fill="#fff" stroke="#2b2620" stroke-width="2.5"/><path d="M40 16 Q56 10 72 16 L72 48 Q56 42 40 48 Z" fill="#fff" stroke="#2b2620" stroke-width="2.5"/><circle cx="22" cy="34" r="6" fill="none" stroke="#d23b2f" stroke-width="2"/><circle cx="58" cy="34" r="6" fill="none" stroke="#2f6bd2" stroke-width="2"/><path d="M22 34 L34 22 L46 34 L58 34 M34 22 L44 22" fill="none" stroke="#2b2620" stroke-width="2"/><rect x="60" y="4" width="4" height="22" transform="rotate(35 62 15)" fill="#e0b52c" stroke="#2b2620" stroke-width="1.5"/></svg>
    <rect x="23" y="117" width="80" height="6" fill="#3A3348"/>
  </g>
  <text x="128" y="50" font-family="'Young Serif', Georgia, 'Times New Roman', serif" font-size="24" fill="#1E1A2A">TrazoLoco</text>
  <text x="128" y="70" font-family="'Azeret Mono', 'JetBrains Mono', ui-monospace, SFMono-Regular, Menlo, Consolas, monospace" font-size="11.5" fill="#5C5468" letter-spacing=".4">GAME · MULTIPLAYER</text>
  <text x="128" y="98" font-family="'Atkinson Hyperlegible', -apple-system, 'Segoe UI', Helvetica, Arial, sans-serif" font-size="13.5" fill="#1E1A2A"><tspan x="128" dy="0">Draw-and-guess in Spanish with real-time rooms.</tspan><tspan x="128" dy="19">Node + WebSockets on Render.</tspan></text>
  <text x="128" y="144" font-family="'Azeret Mono', 'JetBrains Mono', ui-monospace, SFMono-Regular, Menlo, Consolas, monospace" font-size="12.5" font-weight="600" fill="#7A4E14">~250 players/mo · 29% arrive via AI assistants</text>
  <text x="502" y="30" text-anchor="end" font-family="'Azeret Mono', 'JetBrains Mono', ui-monospace, SFMono-Regular, Menlo, Consolas, monospace" font-size="10.5" fill="#5C5468">trazoloco.quovra.com</text>
</svg>
